<svg width="15" height="15" viewBox="0 0 15 15" fill="none" xmlns="http://www.w3.org/2000/svg">
<path d="M7.33333 14.667C6.08889 14.667 4.94444 14.3837 3.9 13.817C2.85556 13.2503 2 12.4948 1.33333 11.5503V13.3337H0V9.33366H4V10.667H2.35C2.88333 11.467 3.58611 12.1114 4.45833 12.6003C5.33056 13.0892 6.28889 13.3337 7.33333 13.3337C8.16667 13.3337 8.94722 13.1753 9.675 12.8587C10.4028 12.542 11.0361 12.1142 11.575 11.5753C12.1139 11.0364 12.5417 10.4031 12.8583 9.67533C13.175 8.94755 13.3333 8.16699 13.3333 7.33366H14.6667C14.6667 8.34477 14.475 9.29477 14.0917 10.1837C13.7083 11.0725 13.1833 11.8503 12.5167 12.517C11.85 13.1837 11.0722 13.7087 10.1833 14.092C9.29445 14.4753 8.34445 14.667 7.33333 14.667ZM6.73333 12.0003V11.1337C6.21111 11.0114 5.78611 10.7864 5.45833 10.4587C5.13056 10.1309 4.88889 9.70033 4.73333 9.16699L5.83333 8.73366C5.96667 9.18921 6.175 9.53088 6.45833 9.75866C6.74167 9.98644 7.06667 10.1003 7.43333 10.1003C7.8 10.1003 8.11389 10.0142 8.375 9.84199C8.63611 9.66977 8.76667 9.40033 8.76667 9.03366C8.76667 8.71144 8.63056 8.45033 8.35833 8.25033C8.08611 8.05033 7.6 7.82255 6.9 7.56699C6.24444 7.33366 5.76389 7.05588 5.45833 6.73366C5.15278 6.41144 5 5.98921 5 5.46699C5 5.01144 5.15833 4.59755 5.475 4.22532C5.79167 3.8531 6.22222 3.61144 6.76667 3.50033V2.66699H7.93333V3.50033C8.33333 3.53366 8.69722 3.69477 9.025 3.98366C9.35278 4.27255 9.57778 4.61144 9.7 5.00033L8.63333 5.43366C8.54445 5.1781 8.4 4.96421 8.2 4.79199C8 4.61977 7.72222 4.53366 7.36667 4.53366C6.97778 4.53366 6.68056 4.61699 6.475 4.78366C6.26944 4.95033 6.16667 5.1781 6.16667 5.46699C6.16667 5.75588 6.29444 5.98366 6.55 6.15032C6.80556 6.31699 7.26667 6.51144 7.93333 6.73366C8.73333 7.02255 9.26667 7.36144 9.53333 7.75033C9.8 8.13921 9.93333 8.56699 9.93333 9.03366C9.93333 9.35588 9.87778 9.63921 9.76667 9.88366C9.65556 10.1281 9.50833 10.3364 9.325 10.5087C9.14167 10.6809 8.92778 10.8198 8.68333 10.9253C8.43889 11.0309 8.17778 11.1114 7.9 11.167V12.0003H6.73333ZM0 7.33366C0 6.32255 0.191667 5.37255 0.575 4.48366C0.958333 3.59477 1.48333 2.81699 2.15 2.15032C2.81667 1.48366 3.59444 0.958658 4.48333 0.575325C5.37222 0.191992 6.32222 0.000325203 7.33333 0.000325203C8.57778 0.000325203 9.72222 0.283658 10.7667 0.850325C11.8111 1.41699 12.6667 2.17255 13.3333 3.11699V1.33366H14.6667V5.33366H10.6667V4.00033H12.3167C11.7833 3.20033 11.0806 2.55588 10.2083 2.06699C9.33611 1.5781 8.37778 1.33366 7.33333 1.33366C6.5 1.33366 5.71944 1.49199 4.99167 1.80866C4.26389 2.12533 3.63056 2.5531 3.09167 3.09199C2.55278 3.63088 2.125 4.26421 1.80833 4.99199C1.49167 5.71977 1.33333 6.50033 1.33333 7.33366H0Z" fill="#1D4ED8"/>
</svg>
