<svg width="23" height="27" viewBox="0 0 23 27" fill="none" xmlns="http://www.w3.org/2000/svg">
<path d="M6.70866 23.1715L9.51402 8.98507C9.60525 8.54412 9.81052 8.21341 10.1298 7.99293C10.4491 7.77246 10.7836 7.66222 11.1334 7.66222C11.4831 7.66222 11.8062 7.73824 12.1027 7.8903C12.3992 8.04235 12.6387 8.27042 12.8211 8.57453L13.7334 10.0342C14.0071 10.4752 14.3607 10.8743 14.794 11.2316C15.2274 11.5889 15.7253 11.8512 16.2879 12.0185V10.3991H17.6564V23.1715H16.2879V13.9115C15.5581 13.7443 14.8814 13.4782 14.258 13.1133C13.6346 12.7483 13.0948 12.2998 12.6387 11.7676L12.0913 14.5045L14.0071 16.3292V23.1715H12.1825V17.6976L10.2667 15.873L8.62451 23.1715H6.70866ZM7.0964 14.1624L5.15774 13.7975C4.91446 13.7519 4.72439 13.6264 4.58755 13.4212C4.4507 13.2159 4.40508 12.984 4.4507 12.7255L5.13493 9.14472C5.22616 8.65816 5.48465 8.27423 5.91039 7.99293C6.33614 7.71164 6.79229 7.6166 7.27886 7.70783L8.32801 7.9131L7.0964 14.1624ZM12.6387 7.20606C12.1369 7.20606 11.7074 7.0274 11.35 6.67008C10.9927 6.31276 10.8141 5.88321 10.8141 5.38144C10.8141 4.87967 10.9927 4.45013 11.35 4.09281C11.7074 3.73549 12.1369 3.55683 12.6387 3.55683C13.1404 3.55683 13.57 3.73549 13.9273 4.09281C14.2846 4.45013 14.4633 4.87967 14.4633 5.38144C14.4633 5.88321 14.2846 6.31276 13.9273 6.67008C13.57 7.0274 13.1404 7.20606 12.6387 7.20606Z" fill="#2563EB"/>
</svg>
