<svg width="46" height="41" viewBox="0 0 46 41" fill="none" xmlns="http://www.w3.org/2000/svg">
<path d="M0 13.669C0 13.3383 0.176693 13.0328 0.46334 12.8679L22.3767 0.261864C22.6592 0.0993655 23.0063 0.0976459 23.2904 0.257339L45.0705 12.5013C45.3616 12.6649 45.5418 12.9729 45.5418 13.3069V17.5473C45.5418 18.259 44.771 18.7036 44.1549 18.3473L23.2912 6.2802C23.007 6.11579 22.6568 6.11457 22.3714 6.277L9.15687 13.7975C8.53152 14.1534 8.53479 15.0559 9.16272 15.4072L16.6921 19.6201C17.303 19.9619 17.3269 20.8322 16.7358 21.2071L13.4837 23.2694C13.1936 23.4534 12.8255 23.4613 12.5278 23.2899L0.463218 16.3471C0.17664 16.1822 0 15.8768 0 15.5461V13.669Z" fill="#3A57E8"/>
<path d="M0 26.9526C0 27.2825 0.175878 27.5874 0.461472 27.7526L22.245 40.3517C22.5322 40.5178 22.8864 40.5172 23.1731 40.3502L34.187 33.9303L36.3121 32.6193C36.8815 32.268 36.9005 31.4469 36.3481 31.0696L32.8981 28.7132L23.2967 23.21C23.0094 23.0453 22.656 23.047 22.3703 23.2142L19.1312 25.1103C18.5285 25.4631 18.5198 26.3312 19.1154 26.6959L26.1994 31.0349C26.8181 31.4139 26.7789 32.3252 26.13 32.6497L23.1547 34.1373C22.8768 34.2763 22.5476 34.2663 22.2787 34.1107L1.38688 22.0274C0.770763 21.671 0 22.1156 0 22.8274V26.9526Z" fill="#3A57E8"/>
<path d="M38.5379 31.0391C38.8376 31.2904 39.263 31.3258 39.6001 31.1275L45.0256 27.936C45.3079 27.77 45.4812 27.4669 45.4812 27.1394V25.5457C45.4812 25.217 45.3066 24.913 45.0227 24.7474L23.2008 12.018C22.9156 11.8516 22.5633 11.85 22.2766 12.0138L18.8577 13.9675C18.2325 14.3248 18.2379 15.2281 18.8674 15.5778L36.4989 25.3731C37.1214 25.7189 37.1353 26.6092 36.524 26.9744L35.9845 27.2967C35.4386 27.6228 35.3774 28.3899 35.8647 28.7983L38.5379 31.0391Z" fill="#3A57E8"/>
</svg>
