<svg width="435" height="53" viewBox="0 0 435 53" fill="none" xmlns="http://www.w3.org/2000/svg">
<path d="M63.168 19.6691C63.168 19.3385 63.3447 19.033 63.6313 18.8681L85.5447 6.262C85.8271 6.0995 86.1743 6.09778 86.4584 6.25748L108.238 18.5014C108.53 18.6651 108.71 18.973 108.71 19.307V23.5474C108.71 24.2592 107.939 24.7038 107.323 24.3474L86.4592 12.2803C86.175 12.1159 85.8248 12.1147 85.5394 12.2771L72.3248 19.7976C71.6995 20.1535 71.7028 21.056 72.3307 21.4073L79.8601 25.6202C80.4709 25.962 80.4949 26.8324 79.9038 27.2072L76.6516 29.2695C76.3616 29.4535 75.9934 29.4614 75.6957 29.2901L63.6312 22.3473C63.3446 22.1824 63.168 21.8769 63.168 21.5463V19.6691Z" fill="#3A57E8"/>
<path d="M63.168 32.9527C63.168 33.2826 63.3438 33.5876 63.6294 33.7527L85.413 46.3519C85.7002 46.518 86.0544 46.5174 86.3411 46.3503L97.355 39.9304L99.48 38.6194C100.049 38.2682 100.069 37.4471 99.516 37.0697L96.0661 34.7134L86.4647 29.2101C86.1774 29.0455 85.824 29.0471 85.5382 29.2144L82.2992 31.1104C81.6965 31.4632 81.6878 32.3313 82.2833 32.6961L89.3674 37.0351C89.9861 37.414 89.9469 38.3254 89.298 38.6498L86.3226 40.1375C86.0447 40.2764 85.7156 40.2664 85.4466 40.1109L64.5548 28.0275C63.9387 27.6712 63.168 28.1158 63.168 28.8275V32.9527Z" fill="#3A57E8"/>
<path d="M101.706 37.0393C102.006 37.2905 102.431 37.3259 102.768 37.1276L108.194 33.9362C108.476 33.7701 108.649 33.4671 108.649 33.1396V31.5458C108.649 31.2171 108.475 30.9132 108.191 30.7475L86.3688 18.0181C86.0836 17.8517 85.7313 17.8502 85.4446 18.014L82.0256 19.9677C81.4004 20.3249 81.4059 21.2283 82.0353 21.578L99.6669 31.3733C100.289 31.7191 100.303 32.6093 99.692 32.9745L99.1524 33.2968C98.6066 33.6229 98.5454 34.39 99.0327 34.7985L101.706 37.0393Z" fill="#3A57E8"/>
<path d="M313.09 39.2424L315.393 45.7727H315.484L317.787 39.2424H318.771L315.923 47H314.953L312.105 39.2424H313.09ZM321.756 47.1212C321.196 47.1212 320.712 46.9975 320.306 46.75C319.901 46.5 319.59 46.1515 319.37 45.7045C319.153 45.2551 319.044 44.7323 319.044 44.1364C319.044 43.5404 319.153 43.0152 319.37 42.5606C319.59 42.1035 319.895 41.7475 320.287 41.4924C320.681 41.2348 321.14 41.1061 321.665 41.1061C321.968 41.1061 322.268 41.1566 322.563 41.2576C322.859 41.3586 323.127 41.5227 323.37 41.75C323.612 41.9747 323.806 42.2727 323.949 42.6439C324.093 43.0152 324.165 43.4722 324.165 44.0152V44.3939H319.681V43.6212H323.256C323.256 43.2929 323.191 43 323.059 42.7424C322.931 42.4848 322.746 42.2816 322.506 42.1326C322.269 41.9836 321.989 41.9091 321.665 41.9091C321.309 41.9091 321.001 41.9975 320.741 42.1742C320.484 42.3485 320.285 42.5758 320.146 42.8561C320.008 43.1364 319.938 43.4369 319.938 43.7576V44.2727C319.938 44.7121 320.014 45.0846 320.165 45.3902C320.319 45.6932 320.533 45.9242 320.806 46.0833C321.078 46.2399 321.395 46.3182 321.756 46.3182C321.991 46.3182 322.203 46.2854 322.393 46.2197C322.585 46.1515 322.75 46.0505 322.889 45.9167C323.028 45.7803 323.135 45.6111 323.211 45.4091L324.074 45.6515C323.984 45.9444 323.831 46.202 323.616 46.4242C323.401 46.6439 323.136 46.8157 322.821 46.9394C322.505 47.0606 322.15 47.1212 321.756 47.1212ZM325.525 47V41.1818H326.389V42.0606H326.449C326.556 41.7727 326.747 41.5391 327.025 41.3598C327.303 41.1806 327.616 41.0909 327.965 41.0909C328.03 41.0909 328.112 41.0922 328.211 41.0947C328.309 41.0972 328.384 41.101 328.434 41.1061V42.0152C328.404 42.0076 328.335 41.9962 328.226 41.9811C328.12 41.9634 328.008 41.9545 327.889 41.9545C327.606 41.9545 327.353 42.0139 327.131 42.1326C326.912 42.2487 326.737 42.4104 326.609 42.6174C326.482 42.822 326.419 43.0556 326.419 43.3182V47H325.525ZM333.615 42.4848L332.812 42.7121C332.762 42.5783 332.687 42.4482 332.589 42.322C332.493 42.1932 332.361 42.0871 332.195 42.0038C332.028 41.9205 331.815 41.8788 331.555 41.8788C331.199 41.8788 330.902 41.9609 330.664 42.125C330.43 42.2866 330.312 42.4924 330.312 42.7424C330.312 42.9646 330.393 43.1402 330.555 43.2689C330.716 43.3977 330.969 43.5051 331.312 43.5909L332.176 43.803C332.696 43.9293 333.084 44.1225 333.339 44.3826C333.594 44.6402 333.721 44.9722 333.721 45.3788C333.721 45.7121 333.625 46.0101 333.433 46.2727C333.244 46.5354 332.979 46.7424 332.638 46.8939C332.297 47.0455 331.901 47.1212 331.449 47.1212C330.855 47.1212 330.364 46.9924 329.975 46.7348C329.586 46.4773 329.34 46.101 329.236 45.6061L330.085 45.3939C330.166 45.7071 330.318 45.9419 330.543 46.0985C330.77 46.2551 331.067 46.3333 331.433 46.3333C331.85 46.3333 332.181 46.2449 332.426 46.0682C332.673 45.8889 332.797 45.6742 332.797 45.4242C332.797 45.2222 332.726 45.053 332.585 44.9167C332.443 44.7778 332.226 44.6742 331.933 44.6061L330.964 44.3788C330.431 44.2525 330.039 44.0568 329.789 43.7917C329.542 43.524 329.418 43.1894 329.418 42.7879C329.418 42.4596 329.51 42.1692 329.695 41.9167C329.882 41.6641 330.135 41.4659 330.456 41.322C330.779 41.178 331.145 41.1061 331.555 41.1061C332.13 41.1061 332.582 41.2323 332.911 41.4848C333.241 41.7374 333.476 42.0707 333.615 42.4848ZM335.067 47V41.1818H335.961V47H335.067ZM335.521 40.2121C335.347 40.2121 335.197 40.1528 335.071 40.0341C334.947 39.9154 334.885 39.7727 334.885 39.6061C334.885 39.4394 334.947 39.2967 335.071 39.178C335.197 39.0593 335.347 39 335.521 39C335.696 39 335.845 39.0593 335.968 39.178C336.095 39.2967 336.158 39.4394 336.158 39.6061C336.158 39.7727 336.095 39.9154 335.968 40.0341C335.845 40.1528 335.696 40.2121 335.521 40.2121ZM339.962 47.1212C339.437 47.1212 338.976 46.9962 338.579 46.7462C338.185 46.4962 337.877 46.1465 337.655 45.697C337.435 45.2475 337.325 44.7222 337.325 44.1212C337.325 43.5152 337.435 42.9861 337.655 42.5341C337.877 42.0821 338.185 41.7311 338.579 41.4811C338.976 41.2311 339.437 41.1061 339.962 41.1061C340.487 41.1061 340.947 41.2311 341.341 41.4811C341.737 41.7311 342.045 42.0821 342.265 42.5341C342.487 42.9861 342.598 43.5152 342.598 44.1212C342.598 44.7222 342.487 45.2475 342.265 45.697C342.045 46.1465 341.737 46.4962 341.341 46.7462C340.947 46.9962 340.487 47.1212 339.962 47.1212ZM339.962 46.3182C340.361 46.3182 340.689 46.2159 340.947 46.0114C341.204 45.8068 341.395 45.5379 341.519 45.2045C341.642 44.8712 341.704 44.5101 341.704 44.1212C341.704 43.7323 341.642 43.3699 341.519 43.0341C341.395 42.6982 341.204 42.4268 340.947 42.2197C340.689 42.0126 340.361 41.9091 339.962 41.9091C339.563 41.9091 339.234 42.0126 338.977 42.2197C338.719 42.4268 338.529 42.6982 338.405 43.0341C338.281 43.3699 338.219 43.7323 338.219 44.1212C338.219 44.5101 338.281 44.8712 338.405 45.2045C338.529 45.5379 338.719 45.8068 338.977 46.0114C339.234 46.2159 339.563 46.3182 339.962 46.3182ZM344.857 43.5V47H343.963V41.1818H344.826V42.0909H344.902C345.038 41.7955 345.246 41.5581 345.523 41.3788C345.801 41.197 346.16 41.1061 346.599 41.1061C346.993 41.1061 347.338 41.1869 347.633 41.3485C347.929 41.5076 348.158 41.75 348.323 42.0758C348.487 42.399 348.569 42.8081 348.569 43.303V47H347.675V43.3636C347.675 42.9066 347.556 42.5505 347.319 42.2955C347.081 42.0379 346.756 41.9091 346.342 41.9091C346.056 41.9091 345.801 41.971 345.576 42.0947C345.354 42.2184 345.179 42.399 345.05 42.6364C344.921 42.8737 344.857 43.1616 344.857 43.5ZM353.187 47V46.3182L355.748 43.5152C356.048 43.1869 356.296 42.9015 356.49 42.6591C356.685 42.4141 356.829 42.1843 356.922 41.9697C357.018 41.7525 357.066 41.5253 357.066 41.2879C357.066 41.0152 357 40.779 356.869 40.5795C356.74 40.3801 356.563 40.226 356.339 40.1174C356.114 40.0088 355.861 39.9545 355.581 39.9545C355.283 39.9545 355.023 40.0164 354.801 40.1402C354.581 40.2614 354.411 40.4318 354.289 40.6515C354.171 40.8712 354.111 41.1288 354.111 41.4242H353.217C353.217 40.9697 353.322 40.5707 353.532 40.2273C353.741 39.8838 354.027 39.6162 354.388 39.4242C354.752 39.2323 355.159 39.1364 355.611 39.1364C356.066 39.1364 356.469 39.2323 356.82 39.4242C357.171 39.6162 357.446 39.875 357.645 40.2008C357.845 40.5265 357.945 40.8889 357.945 41.2879C357.945 41.5732 357.893 41.8523 357.789 42.125C357.688 42.3952 357.512 42.697 357.259 43.0303C357.009 43.3611 356.662 43.7652 356.217 44.2424L354.475 46.1061V46.1667H358.081V47H353.187ZM360.312 47.0606C360.125 47.0606 359.965 46.9937 359.831 46.8598C359.697 46.726 359.63 46.5657 359.63 46.3788C359.63 46.1919 359.697 46.0316 359.831 45.8977C359.965 45.7639 360.125 45.697 360.312 45.697C360.499 45.697 360.659 45.7639 360.793 45.8977C360.927 46.0316 360.994 46.1919 360.994 46.3788C360.994 46.5025 360.962 46.6162 360.899 46.7197C360.839 46.8232 360.757 46.9066 360.653 46.9697C360.552 47.0303 360.438 47.0606 360.312 47.0606ZM364.842 47.1061C364.272 47.1061 363.786 46.9508 363.384 46.6402C362.983 46.327 362.676 45.8737 362.464 45.2803C362.252 44.6843 362.145 43.9646 362.145 43.1212C362.145 42.2828 362.252 41.5669 362.464 40.9735C362.678 40.3775 362.986 39.923 363.388 39.6098C363.792 39.2942 364.277 39.1364 364.842 39.1364C365.408 39.1364 365.892 39.2942 366.293 39.6098C366.697 39.923 367.005 40.3775 367.217 40.9735C367.432 41.5669 367.539 42.2828 367.539 43.1212C367.539 43.9646 367.433 44.6843 367.221 45.2803C367.009 45.8737 366.702 46.327 366.301 46.6402C365.899 46.9508 365.413 47.1061 364.842 47.1061ZM364.842 46.2727C365.408 46.2727 365.848 46 366.161 45.4545C366.474 44.9091 366.63 44.1313 366.63 43.1212C366.63 42.4495 366.558 41.8775 366.414 41.4053C366.273 40.9331 366.068 40.5732 365.801 40.3258C365.536 40.0783 365.216 39.9545 364.842 39.9545C364.282 39.9545 363.844 40.2311 363.528 40.7841C363.212 41.3346 363.055 42.1136 363.055 43.1212C363.055 43.7929 363.125 44.3636 363.267 44.8333C363.408 45.303 363.611 45.6604 363.877 45.9053C364.144 46.1503 364.466 46.2727 364.842 46.2727Z" fill="#8A92A6"/>
<path d="M132.863 16C132.723 14.8125 132.152 13.8906 131.152 13.2344C130.152 12.5781 128.926 12.25 127.473 12.25C126.41 12.25 125.48 12.4219 124.684 12.7656C123.895 13.1094 123.277 13.582 122.832 14.1836C122.395 14.7852 122.176 15.4687 122.176 16.2344C122.176 16.875 122.328 17.4258 122.633 17.8867C122.945 18.3398 123.344 18.7187 123.828 19.0234C124.313 19.3203 124.82 19.5664 125.352 19.7617C125.883 19.9492 126.371 20.1016 126.816 20.2187L129.254 20.875C129.879 21.0391 130.574 21.2656 131.34 21.5547C132.113 21.8437 132.852 22.2383 133.555 22.7383C134.266 23.2305 134.852 23.8633 135.313 24.6367C135.773 25.4102 136.004 26.3594 136.004 27.4844C136.004 28.7812 135.664 29.9531 134.984 31C134.313 32.0469 133.328 32.8789 132.031 33.4961C130.742 34.1133 129.176 34.4219 127.332 34.4219C125.613 34.4219 124.125 34.1445 122.867 33.5898C121.617 33.0352 120.633 32.2617 119.914 31.2695C119.203 30.2773 118.801 29.125 118.707 27.8125H121.707C121.785 28.7187 122.09 29.4687 122.621 30.0625C123.16 30.6484 123.84 31.0859 124.66 31.375C125.488 31.6562 126.379 31.7969 127.332 31.7969C128.441 31.7969 129.438 31.6172 130.32 31.2578C131.203 30.8906 131.902 30.3828 132.418 29.7344C132.934 29.0781 133.191 28.3125 133.191 27.4375C133.191 26.6406 132.969 25.9922 132.523 25.4922C132.078 24.9922 131.492 24.5859 130.766 24.2734C130.039 23.9609 129.254 23.6875 128.41 23.4531L125.457 22.6094C123.582 22.0703 122.098 21.3008 121.004 20.3008C119.91 19.3008 119.363 17.9922 119.363 16.375C119.363 15.0312 119.727 13.8594 120.453 12.8594C121.188 11.8516 122.172 11.0703 123.406 10.5156C124.648 9.95312 126.035 9.67187 127.566 9.67187C129.113 9.67187 130.488 9.94922 131.691 10.5039C132.895 11.0508 133.848 11.8008 134.551 12.7539C135.262 13.707 135.637 14.7891 135.676 16H132.863ZM143.173 23.1719V34H140.407V10H143.173V18.8125H143.407C143.829 17.8828 144.462 17.1445 145.306 16.5977C146.157 16.043 147.29 15.7656 148.704 15.7656C149.931 15.7656 151.005 16.0117 151.927 16.5039C152.849 16.9883 153.563 17.7344 154.071 18.7422C154.587 19.7422 154.845 21.0156 154.845 22.5625V34H152.079V22.75C152.079 21.3203 151.708 20.2148 150.966 19.4336C150.231 18.6445 149.212 18.25 147.907 18.25C147.001 18.25 146.188 18.4414 145.47 18.8242C144.759 19.207 144.196 19.7656 143.782 20.5C143.376 21.2344 143.173 22.125 143.173 23.1719ZM167.451 34.375C165.717 34.375 164.221 33.9922 162.963 33.2266C161.713 32.4531 160.748 31.375 160.068 29.9922C159.396 28.6016 159.061 26.9844 159.061 25.1406C159.061 23.2969 159.396 21.6719 160.068 20.2656C160.748 18.8516 161.693 17.75 162.904 16.9609C164.123 16.1641 165.545 15.7656 167.17 15.7656C168.107 15.7656 169.033 15.9219 169.947 16.2344C170.861 16.5469 171.693 17.0547 172.443 17.7578C173.193 18.4531 173.791 19.375 174.236 20.5234C174.682 21.6719 174.904 23.0859 174.904 24.7656V25.9375H161.029V23.5469H172.092C172.092 22.5312 171.889 21.625 171.482 20.8281C171.084 20.0312 170.514 19.4023 169.771 18.9414C169.037 18.4805 168.17 18.25 167.17 18.25C166.068 18.25 165.115 18.5234 164.311 19.0703C163.514 19.6094 162.9 20.3125 162.471 21.1797C162.041 22.0469 161.826 22.9766 161.826 23.9687V25.5625C161.826 26.9219 162.061 28.0742 162.529 29.0195C163.006 29.957 163.666 30.6719 164.51 31.1641C165.354 31.6484 166.334 31.8906 167.451 31.8906C168.178 31.8906 168.834 31.7891 169.42 31.5859C170.014 31.375 170.525 31.0625 170.955 30.6484C171.385 30.2266 171.717 29.7031 171.951 29.0781L174.623 29.8281C174.342 30.7344 173.869 31.5312 173.205 32.2187C172.541 32.8984 171.721 33.4297 170.744 33.8125C169.768 34.1875 168.67 34.375 167.451 34.375ZM179.111 40.75V16H181.783V18.8594H182.111C182.314 18.5469 182.596 18.1484 182.955 17.6641C183.322 17.1719 183.846 16.7344 184.525 16.3516C185.213 15.9609 186.143 15.7656 187.314 15.7656C188.83 15.7656 190.166 16.1445 191.322 16.9023C192.479 17.6602 193.381 18.7344 194.029 20.125C194.678 21.5156 195.002 23.1562 195.002 25.0469C195.002 26.9531 194.678 28.6055 194.029 30.0039C193.381 31.3945 192.482 32.4727 191.334 33.2383C190.186 33.9961 188.861 34.375 187.361 34.375C186.205 34.375 185.279 34.1836 184.584 33.8008C183.889 33.4102 183.354 32.9687 182.979 32.4766C182.604 31.9766 182.314 31.5625 182.111 31.2344H181.877V40.75H179.111ZM181.83 25C181.83 26.3594 182.029 27.5586 182.428 28.5977C182.826 29.6289 183.408 30.4375 184.174 31.0234C184.939 31.6016 185.877 31.8906 186.986 31.8906C188.143 31.8906 189.107 31.5859 189.881 30.9766C190.662 30.3594 191.248 29.5312 191.639 28.4922C192.037 27.4453 192.236 26.2812 192.236 25C192.236 23.7344 192.041 22.5937 191.65 21.5781C191.268 20.5547 190.686 19.7461 189.904 19.1523C189.131 18.5508 188.158 18.25 186.986 18.25C185.861 18.25 184.916 18.5352 184.15 19.1055C183.385 19.668 182.807 20.457 182.416 21.4727C182.025 22.4805 181.83 23.6562 181.83 25ZM201.986 23.1719V34H199.221V10H201.986V18.8125H202.221C202.643 17.8828 203.275 17.1445 204.119 16.5977C204.971 16.043 206.104 15.7656 207.518 15.7656C208.744 15.7656 209.818 16.0117 210.74 16.5039C211.662 16.9883 212.377 17.7344 212.885 18.7422C213.4 19.7422 213.658 21.0156 213.658 22.5625V34H210.893V22.75C210.893 21.3203 210.521 20.2148 209.779 19.4336C209.045 18.6445 208.025 18.25 206.721 18.25C205.814 18.25 205.002 18.4414 204.283 18.8242C203.572 19.207 203.01 19.7656 202.596 20.5C202.189 21.2344 201.986 22.125 201.986 23.1719ZM226.265 34.375C224.53 34.375 223.034 33.9922 221.776 33.2266C220.526 32.4531 219.562 31.375 218.882 29.9922C218.21 28.6016 217.874 26.9844 217.874 25.1406C217.874 23.2969 218.21 21.6719 218.882 20.2656C219.562 18.8516 220.507 17.75 221.718 16.9609C222.937 16.1641 224.358 15.7656 225.983 15.7656C226.921 15.7656 227.847 15.9219 228.761 16.2344C229.675 16.5469 230.507 17.0547 231.257 17.7578C232.007 18.4531 232.604 19.375 233.05 20.5234C233.495 21.6719 233.718 23.0859 233.718 24.7656V25.9375H219.843V23.5469H230.905C230.905 22.5312 230.702 21.625 230.296 20.8281C229.897 20.0312 229.327 19.4023 228.585 18.9414C227.851 18.4805 226.983 18.25 225.983 18.25C224.882 18.25 223.929 18.5234 223.124 19.0703C222.327 19.6094 221.714 20.3125 221.284 21.1797C220.854 22.0469 220.64 22.9766 220.64 23.9687V25.5625C220.64 26.9219 220.874 28.0742 221.343 29.0195C221.819 29.957 222.479 30.6719 223.323 31.1641C224.167 31.6484 225.147 31.8906 226.265 31.8906C226.991 31.8906 227.647 31.7891 228.233 31.5859C228.827 31.375 229.339 31.0625 229.769 30.6484C230.198 30.2266 230.53 29.7031 230.765 29.0781L233.437 29.8281C233.155 30.7344 232.683 31.5312 232.019 32.2187C231.354 32.8984 230.534 33.4297 229.558 33.8125C228.581 34.1875 227.483 34.375 226.265 34.375ZM237.925 34V16H240.597V18.7187H240.784C241.112 17.8281 241.706 17.1055 242.565 16.5508C243.425 15.9961 244.394 15.7187 245.472 15.7187C245.675 15.7187 245.929 15.7227 246.233 15.7305C246.538 15.7383 246.769 15.75 246.925 15.7656V18.5781C246.831 18.5547 246.616 18.5195 246.28 18.4727C245.952 18.418 245.604 18.3906 245.237 18.3906C244.362 18.3906 243.581 18.5742 242.894 18.9414C242.214 19.3008 241.675 19.8008 241.276 20.4414C240.886 21.0742 240.69 21.7969 240.69 22.6094V34H237.925ZM256.452 34.375C254.952 34.375 253.628 33.9961 252.479 33.2383C251.331 32.4727 250.433 31.3945 249.784 30.0039C249.136 28.6055 248.812 26.9531 248.812 25.0469C248.812 23.1562 249.136 21.5156 249.784 20.125C250.433 18.7344 251.335 17.6602 252.491 16.9023C253.647 16.1445 254.983 15.7656 256.499 15.7656C257.671 15.7656 258.597 15.9609 259.276 16.3516C259.964 16.7344 260.487 17.1719 260.847 17.6641C261.214 18.1484 261.499 18.5469 261.702 18.8594H261.937V10H264.702V34H262.03V31.2344H261.702C261.499 31.5625 261.21 31.9766 260.835 32.4766C260.46 32.9687 259.925 33.4102 259.229 33.8008C258.534 34.1836 257.608 34.375 256.452 34.375ZM256.827 31.8906C257.937 31.8906 258.874 31.6016 259.64 31.0234C260.405 30.4375 260.987 29.6289 261.386 28.5977C261.784 27.5586 261.983 26.3594 261.983 25C261.983 23.6562 261.788 22.4805 261.397 21.4727C261.007 20.457 260.429 19.668 259.663 19.1055C258.897 18.5352 257.952 18.25 256.827 18.25C255.655 18.25 254.679 18.5508 253.897 19.1523C253.124 19.7461 252.542 20.5547 252.151 21.5781C251.769 22.5937 251.577 23.7344 251.577 25C251.577 26.2812 251.772 27.4453 252.163 28.4922C252.562 29.5312 253.147 30.3594 253.921 30.9766C254.702 31.5859 255.671 31.8906 256.827 31.8906ZM275.108 34L268.241 10H273.784L277.757 26.6758H277.956L282.339 10H287.085L291.456 26.7109H291.667L295.64 10H301.183L294.315 34H289.37L284.8 18.3086H284.612L280.054 34H275.108ZM307.004 34.3398C305.855 34.3398 304.832 34.1406 303.934 33.7422C303.035 33.3359 302.324 32.7383 301.801 31.9492C301.285 31.1523 301.027 30.1602 301.027 28.9727C301.027 27.9727 301.211 27.1328 301.578 26.4531C301.945 25.7734 302.445 25.2266 303.078 24.8125C303.711 24.3984 304.43 24.0859 305.234 23.875C306.047 23.6641 306.898 23.5156 307.789 23.4297C308.836 23.3203 309.68 23.2187 310.32 23.125C310.961 23.0234 311.426 22.875 311.715 22.6797C312.004 22.4844 312.148 22.1953 312.148 21.8125V21.7422C312.148 21 311.914 20.4258 311.445 20.0195C310.984 19.6133 310.328 19.4102 309.477 19.4102C308.578 19.4102 307.863 19.6094 307.332 20.0078C306.801 20.3984 306.449 20.8906 306.277 21.4844L301.66 21.1094C301.895 20.0156 302.355 19.0703 303.043 18.2734C303.73 17.4687 304.617 16.8516 305.703 16.4219C306.797 15.9844 308.063 15.7656 309.5 15.7656C310.5 15.7656 311.457 15.8828 312.371 16.1172C313.293 16.3516 314.109 16.7148 314.82 17.207C315.539 17.6992 316.105 18.332 316.52 19.1055C316.934 19.8711 317.141 20.7891 317.141 21.8594V34H312.406V31.5039H312.266C311.977 32.0664 311.59 32.5625 311.105 32.9922C310.621 33.4141 310.039 33.7461 309.359 33.9883C308.68 34.2227 307.895 34.3398 307.004 34.3398ZM308.434 30.8945C309.168 30.8945 309.816 30.75 310.379 30.4609C310.941 30.1641 311.383 29.7656 311.703 29.2656C312.023 28.7656 312.184 28.1992 312.184 27.5664V25.6563C312.027 25.7578 311.813 25.8516 311.539 25.9375C311.273 26.0156 310.973 26.0898 310.637 26.1602C310.301 26.2227 309.965 26.2812 309.629 26.3359C309.293 26.3828 308.988 26.4258 308.715 26.4648C308.129 26.5508 307.617 26.6875 307.18 26.875C306.742 27.0625 306.402 27.3164 306.16 27.6367C305.918 27.9492 305.797 28.3398 305.797 28.8086C305.797 29.4883 306.043 30.0078 306.535 30.3672C307.035 30.7187 307.668 30.8945 308.434 30.8945ZM330.588 16V19.75H319.748V16H330.588ZM322.209 11.6875H327.201V28.4687C327.201 28.9297 327.271 29.2891 327.412 29.5469C327.553 29.7969 327.748 29.9727 327.998 30.0742C328.256 30.1758 328.553 30.2266 328.889 30.2266C329.123 30.2266 329.357 30.207 329.592 30.168C329.826 30.1211 330.006 30.0859 330.131 30.0625L330.916 33.7773C330.666 33.8555 330.314 33.9453 329.861 34.0469C329.408 34.1563 328.857 34.2227 328.209 34.2461C327.006 34.293 325.951 34.1328 325.045 33.7656C324.146 33.3984 323.447 32.8281 322.947 32.0547C322.447 31.2812 322.201 30.3047 322.209 29.125V11.6875ZM341.779 34.3516C339.936 34.3516 338.35 33.9609 337.021 33.1797C335.701 32.3906 334.686 31.2969 333.975 29.8984C333.271 28.5 332.92 26.8906 332.92 25.0703C332.92 23.2266 333.275 21.6094 333.986 20.2187C334.705 18.8203 335.725 17.7305 337.045 16.9492C338.365 16.1602 339.936 15.7656 341.756 15.7656C343.326 15.7656 344.701 16.0508 345.881 16.6211C347.061 17.1914 347.994 17.9922 348.682 19.0234C349.369 20.0547 349.748 21.2656 349.818 22.6562H345.107C344.975 21.7578 344.623 21.0352 344.053 20.4883C343.49 19.9336 342.752 19.6562 341.838 19.6562C341.064 19.6562 340.389 19.8672 339.811 20.2891C339.24 20.7031 338.795 21.3086 338.475 22.1055C338.154 22.9023 337.994 23.8672 337.994 25C337.994 26.1484 338.15 27.125 338.463 27.9297C338.783 28.7344 339.232 29.3477 339.811 29.7695C340.389 30.1914 341.064 30.4023 341.838 30.4023C342.408 30.4023 342.92 30.2852 343.373 30.0508C343.834 29.8164 344.213 29.4766 344.51 29.0312C344.814 28.5781 345.014 28.0352 345.107 27.4023H349.818C349.74 28.7773 349.365 29.9883 348.693 31.0352C348.029 32.0742 347.111 32.8867 345.939 33.4727C344.768 34.0586 343.381 34.3516 341.779 34.3516ZM358.007 23.5938V34H353.015V10H357.866V19.1758H358.077C358.483 18.1133 359.14 17.2812 360.046 16.6797C360.952 16.0703 362.089 15.7656 363.456 15.7656C364.706 15.7656 365.796 16.0391 366.726 16.5859C367.663 17.125 368.39 17.9023 368.905 18.918C369.429 19.9258 369.687 21.1328 369.679 22.5391V34H364.687V23.4297C364.694 22.3203 364.413 21.457 363.843 20.8398C363.28 20.2227 362.491 19.9141 361.476 19.9141C360.796 19.9141 360.194 20.0586 359.671 20.3477C359.155 20.6367 358.749 21.0586 358.452 21.6133C358.163 22.1602 358.015 22.8203 358.007 23.5938Z" fill="#232D42"/>
</svg>
