<svg width="23" height="27" viewBox="0 0 23 27" fill="none" xmlns="http://www.w3.org/2000/svg">
<path d="M16.7454 14.0495V12.2249H20.3946V14.0495H16.7454ZM17.8402 20.4356L14.9208 18.2461L16.0155 16.7864L18.9349 18.9759L17.8402 20.4356ZM16.0155 9.48792L14.9208 8.02823L17.8402 5.83869L18.9349 7.29838L16.0155 9.48792ZM4.88537 19.5233V15.8741H3.97306C3.47129 15.8741 3.04174 15.6954 2.68442 15.3381C2.3271 14.9808 2.14844 14.5512 2.14844 14.0495V12.2249C2.14844 11.7231 2.3271 11.2935 2.68442 10.9362C3.04174 10.5789 3.47129 10.4002 3.97306 10.4002H7.62229L12.1838 7.66331V18.611L7.62229 15.8741H6.70998V19.5233H4.88537ZM10.3592 15.3723V10.902L8.12406 12.2249H3.97306V14.0495H8.12406L10.3592 15.3723ZM13.0961 16.1934V10.0809C13.5067 10.4458 13.8374 10.8906 14.0883 11.4152C14.3392 11.9398 14.4646 12.5137 14.4646 13.1372C14.4646 13.7606 14.3392 14.3346 14.0883 14.8591C13.8374 15.3837 13.5067 15.8285 13.0961 16.1934Z" fill="#DC2626"/>
</svg>
