<svg width="23" height="27" viewBox="0 0 23 27" fill="none" xmlns="http://www.w3.org/2000/svg">
<path d="M11.2692 13.1401C10.2656 13.1401 9.40654 12.7828 8.6919 12.0681C7.97726 11.3535 7.61994 10.4944 7.61994 9.49085C7.61994 8.48731 7.97726 7.62822 8.6919 6.91358C9.40654 6.19894 10.2656 5.84162 11.2692 5.84162C12.2727 5.84162 13.1318 6.19894 13.8464 6.91358C14.5611 7.62822 14.9184 8.48731 14.9184 9.49085C14.9184 10.4944 14.5611 11.3535 13.8464 12.0681C13.1318 12.7828 12.2727 13.1401 11.2692 13.1401ZM3.9707 20.4386V17.8841C3.9707 17.3671 4.10375 16.892 4.36984 16.4586C4.63593 16.0253 4.98945 15.6946 5.4304 15.4665C6.37312 14.9951 7.33104 14.6416 8.30417 14.4059C9.2773 14.1702 10.2656 14.0524 11.2692 14.0524C12.2727 14.0524 13.2611 14.1702 14.2342 14.4059C15.2073 14.6416 16.1652 14.9951 17.108 15.4665C17.5489 15.6946 17.9024 16.0253 18.1685 16.4586C18.4346 16.892 18.5676 17.3671 18.5676 17.8841V20.4386H3.9707ZM5.79532 18.6139H16.743V17.8841C16.743 17.7168 16.7012 17.5648 16.6176 17.4279C16.534 17.2911 16.4237 17.1847 16.2869 17.1086C15.4658 16.6981 14.6371 16.3902 13.8008 16.1849C12.9646 15.9797 12.1207 15.877 11.2692 15.877C10.4177 15.877 9.5738 15.9797 8.73752 16.1849C7.90123 16.3902 7.07255 16.6981 6.25148 17.1086C6.11463 17.1847 6.00439 17.2911 5.92076 17.4279C5.83714 17.5648 5.79532 17.7168 5.79532 17.8841V18.6139ZM11.2692 11.3155C11.7709 11.3155 12.2005 11.1368 12.5578 10.7795C12.9151 10.4222 13.0938 9.99262 13.0938 9.49085C13.0938 8.98908 12.9151 8.55954 12.5578 8.20222C12.2005 7.8449 11.7709 7.66624 11.2692 7.66624C10.7674 7.66624 10.3379 7.8449 9.98054 8.20222C9.62322 8.55954 9.44456 8.98908 9.44456 9.49085C9.44456 9.99262 9.62322 10.4222 9.98054 10.7795C10.3379 11.1368 10.7674 11.3155 11.2692 11.3155Z" fill="#9333EA"/>
</svg>
